<svg xmlns="http://www.w3.org/2000/svg" version="1.1" viewBox="-5.0 -10.0 110.0 135.0">
 <path fill="#8F00FF" d="m48.832 3.125c0-0.64453 0.52344-1.168 1.168-1.168s1.168 0.52344 1.168 1.168v10.125c-0.007813 0.63672-0.52734 1.1523-1.168 1.1523s-1.1602-0.51562-1.168-1.1523zm1.168 16.875c7.957 0 15.59 3.1602 21.215 8.7852s8.7852 13.258 8.7852 21.215-3.1602 15.586-8.7852 21.215c-5.625 5.625-13.258 8.7852-21.215 8.7852s-15.586-3.1602-21.215-8.7852c-5.625-5.625-8.7852-13.258-8.7852-21.215s3.1602-15.586 8.7852-21.215c5.6289-5.625 13.258-8.7852 21.215-8.7852zm33.973 59.93-4.7695-4.7734c-0.46094-0.44141-1.1914-0.4375-1.6445 0.015625s-0.45703 1.1836-0.015625 1.6445l4.7734 4.7734v-0.003906c0.21875 0.22656 0.51953 0.35547 0.83203 0.35547 0.3125 0.003906 0.61719-0.12109 0.83594-0.34375 0.22266-0.21875 0.34766-0.51953 0.34375-0.83594 0-0.3125-0.12891-0.61328-0.35547-0.83203zm-4.043-63.906-4.7734 4.7734c-0.44141 0.46094-0.4375 1.1914 0.015625 1.6445s1.1836 0.45703 1.6445 0.015625l4.7695-4.7734c0.22656-0.21875 0.35547-0.51953 0.35547-0.83203 0.003906-0.3125-0.12109-0.61719-0.34375-0.83594-0.21875-0.22266-0.51953-0.34766-0.83594-0.34375-0.3125 0-0.61328 0.12891-0.83203 0.35547zm-63.906 4.043 4.7734 4.7734c0.46094 0.44531 1.1914 0.4375 1.6445-0.011719 0.45312-0.45312 0.45703-1.1836 0.015625-1.6445l-4.7734-4.7695c-0.46094-0.44531-1.1914-0.44141-1.6445 0.011719-0.44922 0.45312-0.45703 1.1836-0.011718 1.6445zm4.043 63.906 4.7734-4.7734 0.003906 0.003906c0.22266-0.21875 0.35156-0.51953 0.35547-0.83594 0.003906-0.3125-0.12109-0.61719-0.34375-0.83594-0.22266-0.22266-0.52344-0.34766-0.83594-0.34375-0.31641 0-0.61719 0.12891-0.83594 0.35547l-4.7695 4.7734c-0.22656 0.21875-0.35547 0.51953-0.35547 0.83203-0.003906 0.3125 0.12109 0.61719 0.34375 0.83594 0.21875 0.22266 0.51953 0.34766 0.83594 0.34375 0.3125 0 0.61328-0.12891 0.83203-0.35547zm-8.5234-22.457c-0.625 0.16797-1.2656-0.20312-1.4336-0.82812s0.20312-1.2656 0.82812-1.4336l3.2617-0.875v0.003906c0.625-0.16797 1.2656 0.20313 1.4336 0.82813 0.16406 0.625-0.20703 1.2656-0.83203 1.4336zm-8.418-10.348c-0.64453 0-1.168-0.52344-1.168-1.168s0.52344-1.168 1.168-1.168h10.125c0.63672 0.007813 1.1523 0.52734 1.1523 1.168s-0.51562 1.1602-1.1523 1.168zm7.8125-10.422c-0.61719-0.17188-0.98047-0.80859-0.8125-1.4297 0.16406-0.62109 0.79688-0.99219 1.418-0.83203l3.2617 0.875c0.61719 0.17188 0.98047 0.80859 0.8125 1.4258-0.16406 0.62109-0.79688 0.99219-1.418 0.83203l-3.2617-0.875zm85.938 8.0859c0.64453 0 1.168 0.52344 1.168 1.168s-0.52344 1.168-1.168 1.168h-10.125c-0.63672-0.007813-1.1523-0.52734-1.1523-1.168s0.51562-1.1602 1.1523-1.168zm-45.707 48.043c0 0.64453-0.52344 1.168-1.168 1.168s-1.168-0.52344-1.168-1.168v-10.125c0.007813-0.63672 0.52734-1.1523 1.168-1.1523s1.1602 0.51562 1.168 1.1523zm-10.422-7.8125c-0.078125 0.30078-0.27344 0.55859-0.54297 0.71875-0.26953 0.15625-0.59375 0.19922-0.89453 0.12109-0.30078-0.082032-0.55859-0.28125-0.71484-0.55078-0.15234-0.27344-0.19531-0.59375-0.10938-0.89453l0.875-3.2617c0.16406-0.625 0.80469-0.99609 1.4297-0.82812 0.625 0.16797 0.99609 0.80859 0.82813 1.4336l-0.875 3.2617zm20.77-0.60547c0.16797 0.625-0.20312 1.2656-0.82812 1.4336s-1.2656-0.20312-1.4336-0.82812l-0.875-3.2617h0.003906c-0.085937-0.30078-0.046874-0.62109 0.10938-0.89453 0.15625-0.26953 0.41406-0.46875 0.71484-0.55078 0.30078-0.078125 0.62109-0.035157 0.89453 0.12109 0.26953 0.16016 0.46484 0.41797 0.53906 0.71875zm27.547-29.203c0.62109 0.16797 0.99219 0.80859 0.82812 1.4336-0.16797 0.625-0.80859 0.99609-1.4336 0.82812l-3.2617-0.875c-0.625-0.16406-0.99609-0.80469-0.82812-1.4297 0.16797-0.625 0.80859-0.99609 1.4336-0.82813l3.2617 0.875zm-0.60547-20.77c0.625-0.16797 1.2656 0.20312 1.4336 0.82812s-0.20312 1.2656-0.82812 1.4336l-3.2617 0.875v-0.003906c-0.625 0.16797-1.2656-0.20313-1.4336-0.82813-0.16406-0.625 0.20703-1.2656 0.82812-1.4297zm-29.203-27.547c0.17188-0.61719 0.80859-0.98047 1.4297-0.8125 0.62109 0.16406 0.99219 0.79688 0.83203 1.418l-0.875 3.2617c-0.17188 0.61719-0.80859 0.98047-1.4258 0.8125-0.62109-0.16406-0.99219-0.79688-0.83203-1.418l0.875-3.2617zm-20.77 0.60547c-0.085937-0.30078-0.042969-0.625 0.10938-0.89453 0.15625-0.27344 0.41406-0.46875 0.71484-0.55078 0.30078-0.082031 0.625-0.035156 0.89453 0.12109s0.46484 0.41797 0.54297 0.71875l0.875 3.2617h-0.003906c0.085937 0.30078 0.046874 0.62109-0.10938 0.89453-0.15625 0.26953-0.41406 0.46875-0.71484 0.55078-0.30078 0.078125-0.62109 0.035157-0.89453-0.12109-0.26953-0.16016-0.46484-0.41797-0.53906-0.72266z" fill-rule="evenodd"/>
</svg>