<svg xmlns="http://www.w3.org/2000/svg" version="1.1" viewBox="-5.0 -10.0 110.0 135.0">
 <path fill="#4C4CEB" d="m50.219 3.125c-25.992 0-47.094 20.973-47.094 46.875s21.102 46.875 47.094 46.875c23.73 0 43.375-17.469 46.625-40.219 0.1875-1.3242-0.48828-2.6211-1.6797-3.2266-1.1953-0.60547-2.6406-0.38281-3.5977 0.55078-5.3906 5.2695-12.773 8.5195-20.93 8.5195-16.504 0-29.855-13.305-29.855-29.688 0-9.8672 4.8398-18.613 12.305-24.02 1.0859-0.78516 1.5508-2.1797 1.1523-3.4609-0.39844-1.2812-1.5703-2.1641-2.9141-2.1953-0.36719-0.007813-0.73438-0.011719-1.1055-0.011719z"/>
</svg>